<?xml version="1.0" encoding="UTF-8" standalone="no"?>
<!DOCTYPE svg PUBLIC "-//W3C//DTD SVG 1.1//EN" "http://www.w3.org/Graphics/SVG/1.1/DTD/svg11.dtd">
<svg version="1.1" xmlns="http://www.w3.org/2000/svg" xmlns:xlink="http://www.w3.org/1999/xlink" preserveAspectRatio="xMidYMid meet" viewBox="24.71236095094612 184.420297855424 160 159" width="155" height="155"><defs><path d="M56.01 221.75L55.89 271.12L55.83 320.49L57.87 322.65C59.07 323.98 59.74 324.73 59.87 324.88C68.82 324.88 73.79 324.88 74.79 324.88C82.94 324.88 89.77 324.67 89.96 324.47C90.15 324.27 90.15 322.65 89.96 320.96C89.93 320.75 89.78 319.69 89.52 317.79C87.71 317.79 78.68 317.79 62.42 317.79C62.42 262.23 62.42 231.37 62.42 225.2C70.14 225.28 74.43 225.32 75.28 225.33C89.27 225.47 90.52 225.2 92.07 221.62C92.45 220.74 92.69 214.87 92.75 207.77C92.75 201.02 92.94 194.8 93.13 194C93.15 193.9 93.28 193.4 93.5 192.51C97.6 192.51 118.1 192.51 154.99 192.51C154.99 216.86 154.99 230.39 154.99 233.1C156.11 233.83 156.73 234.23 156.85 234.32C157.91 234.92 159.22 236.21 159.71 237.15C160.27 238.03 160.96 238.77 161.33 238.77C161.64 238.77 161.83 228.78 161.7 214.05C161.69 212.41 161.63 204.17 161.52 189.34C161.38 189.21 160.7 188.55 159.47 187.38L157.48 185.42L89.4 185.42L72.68 203.59L56.01 221.75Z" id="a19JrvaplN"></path><path d="M117.93 259.57C116.13 261.33 117 266.39 119.62 269.5C120.24 270.31 121.35 272.68 122.04 274.9C125.39 285.51 131.42 291.65 138.58 291.65C142.49 291.65 147.41 288.95 150.08 285.3C151.81 282.87 155.61 274.63 155.61 273.21C155.61 272.88 156.61 271.19 157.78 269.5C160.4 265.72 161.14 262.34 159.71 260.04C159.03 258.96 158.72 256.87 158.72 253.83C158.72 246 156.67 241 152.5 238.77C151.32 238.1 148.89 236.81 147.15 235.87C145.41 234.85 142.8 233.91 141.25 233.71C139.76 233.44 137.95 233.16 137.27 233.1C136.59 232.96 134.72 233.1 133.17 233.37C123.03 235.19 117.75 242.42 118.5 253.56C118.68 257.41 118.56 258.89 117.93 259.57Z" id="eC8u7S5TV"></path><path d="M95.62 317.92C95.62 323.19 95.74 323.93 97.17 325.62C100.53 329.54 111.1 333.59 122.97 335.41C130.74 336.63 148.15 336.42 156.54 335.01C168.48 333.05 179.73 328.05 181.16 324.07C181.91 321.9 181.91 314.68 181.1 311.77C179.61 305.97 175.5 302.25 166.74 298.81C161.64 296.78 151.01 293.47 149.64 293.47C149.27 293.47 148.46 295.5 147.84 298C146.35 304.01 143.12 312.32 140.63 316.5C140.5 316.73 139.86 317.85 138.7 319.88C137.62 318.3 137.02 317.42 136.9 317.24C133.48 312.18 129.37 302.05 128.01 295.3C127.75 294.28 127.39 293.54 127.14 293.54C126.89 293.61 126.14 293.75 125.46 293.95C119.8 295.36 110.47 298.67 106.56 300.63C98.11 304.89 95.62 308.74 95.62 317.92Z" id="b71r8dxxzq"></path><path d="M72.34 340.42C70.31 340.42 68.67 338.53 68.67 336.21C68.67 333.89 70.31 332 72.34 332C74.37 332 76.01 333.89 76.01 336.21C76.01 338.53 74.37 340.42 72.34 340.42Z" id="bhn2BKlWN"></path><path d="M30.39 274.95C28.36 274.95 26.71 273.04 26.71 270.68C26.71 268.33 28.36 266.41 30.39 266.41C32.41 266.41 34.05 268.33 34.05 270.68C34.05 273.04 32.41 274.95 30.39 274.95Z" id="edGm0nQZL"></path><path d="M30.39 283.22L30.39 274.95" id="h1lnpoQcOY"></path><path d="M30.39 257.24L30.39 265.19" id="db5wiLhv3"></path><path d="M43.8 202.8L44.4 205.79L45.14 208.93L45.74 212.09L45.44 215.24L45.44 218.4L43.36 220.22L40.38 220.39L37.55 219.56L36.66 216.74L39.04 215.24L41.72 215.24L43.95 217.57L46.19 219.89L48.12 222.21L49.61 225.04" id="hhf7kH4e7"></path><path d="M175.29 240.42C177.6 240.42 179.48 238.51 179.48 236.15C179.48 233.79 177.6 231.88 175.29 231.88C172.97 231.88 171.09 233.79 171.09 236.15C171.09 238.51 172.97 240.42 175.29 240.42Z" id="byKBc5XT9"></path><path d="M175.29 233.05L175.29 225.04" id="hsYVSIx9C"></path><path d="M175.29 240.42L175.29 247.69" id="bkTWSHrC9"></path></defs><g><g><use xlink:href="#a19JrvaplN" opacity="1" fill="#c2c2c2" fill-opacity="1"></use><g><use xlink:href="#a19JrvaplN" opacity="1" fill-opacity="0" stroke="#000000" stroke-width="1" stroke-opacity="0"></use></g></g><g><use xlink:href="#eC8u7S5TV" opacity="1" fill="#ff0066" fill-opacity="1"></use><g><use xlink:href="#eC8u7S5TV" opacity="1" fill-opacity="0" stroke="#000000" stroke-width="1" stroke-opacity="0"></use></g></g><g><use xlink:href="#b71r8dxxzq" opacity="1" fill="#ff0066" fill-opacity="1"></use><g><use xlink:href="#b71r8dxxzq" opacity="1" fill-opacity="0" stroke="#000000" stroke-width="1" stroke-opacity="0"></use></g></g><g><g><use xlink:href="#bhn2BKlWN" opacity="1" fill-opacity="0" stroke="#c2c2c2" stroke-width="4" stroke-opacity="1"></use></g></g><g><use xlink:href="#edGm0nQZL" opacity="1" fill="#ffffff" fill-opacity="1"></use><g><use xlink:href="#edGm0nQZL" opacity="1" fill-opacity="0" stroke="#c2c2c2" stroke-width="4" stroke-opacity="1"></use></g></g><g><use xlink:href="#h1lnpoQcOY" opacity="1" fill="#000000" fill-opacity="0"></use><g><use xlink:href="#h1lnpoQcOY" opacity="1" fill-opacity="0" stroke="#c2c2c2" stroke-width="4" stroke-opacity="1"></use></g></g><g><use xlink:href="#db5wiLhv3" opacity="1" fill="#000000" fill-opacity="0"></use><g><use xlink:href="#db5wiLhv3" opacity="1" fill-opacity="0" stroke="#c2c2c2" stroke-width="4" stroke-opacity="1"></use></g></g><g><use xlink:href="#hhf7kH4e7" opacity="1" fill="#000000" fill-opacity="0"></use><g><use xlink:href="#hhf7kH4e7" opacity="1" fill-opacity="0" stroke="#c2c2c2" stroke-width="4" stroke-opacity="1"></use></g></g><g><use xlink:href="#byKBc5XT9" opacity="1" fill="#ffffff" fill-opacity="1"></use><g><use xlink:href="#byKBc5XT9" opacity="1" fill-opacity="0" stroke="#c2c2c2" stroke-width="1" stroke-opacity="1"></use></g></g><g><use xlink:href="#hsYVSIx9C" opacity="1" fill="#000000" fill-opacity="0"></use><g><use xlink:href="#hsYVSIx9C" opacity="1" fill-opacity="0" stroke="#c2c2c2" stroke-width="4" stroke-opacity="1"></use></g></g><g><use xlink:href="#bkTWSHrC9" opacity="1" fill="#000000" fill-opacity="0"></use><g><use xlink:href="#bkTWSHrC9" opacity="1" fill-opacity="0" stroke="#c2c2c2" stroke-width="4" stroke-opacity="1"></use></g></g></g></svg>