<?xml version="1.0" encoding="UTF-8" standalone="no"?>
<!DOCTYPE svg PUBLIC "-//W3C//DTD SVG 1.1//EN" "http://www.w3.org/Graphics/SVG/1.1/DTD/svg11.dtd">
<svg version="1.1" xmlns="http://www.w3.org/2000/svg" xmlns:xlink="http://www.w3.org/1999/xlink" preserveAspectRatio="xMidYMid meet" viewBox="394.07510333341395 412.8356142673969 160.00000000000023 159.49999999999994" width="155" height="155"><defs><path d="M401.55 534.69C398.53 534.69 396.08 532.09 396.08 528.88C396.08 525.68 398.53 523.07 401.55 523.07C404.57 523.07 407.02 525.68 407.02 528.88C407.02 532.09 404.57 534.69 401.55 534.69Z" id="bsOST2oPA"></path><path d="M520.42 528.61C524.02 528.61 526.03 528.61 526.43 528.61C529.76 528.61 532.79 528.54 533.17 528.43C534.42 528.11 534.86 526.5 534.11 525.11C534.09 525.07 533.94 524.8 533.67 524.34C529.73 524.34 527.55 524.34 527.11 524.34C520.89 524.34 520.5 524.36 519.81 524.88C518.88 525.58 518.85 526.89 519.75 527.91C519.8 527.96 520.02 528.19 520.42 528.61Z" id="gkq8Nzg5w"></path><path d="M401.55 523.79L401.55 512.54" id="bNGi3nEwc"></path><path d="M475.77 528.58C477.05 528.58 487.34 528.58 488.63 528.58C489.01 528.16 489.22 527.93 489.26 527.88C490.06 527 490.06 525.93 489.32 525.01C489.28 524.97 489.1 524.74 488.76 524.34C487.9 524.34 483.59 524.34 475.82 524.34C475.42 524.72 475.2 524.94 475.16 524.98C474.57 526.29 474.55 527.26 475.1 527.88C475.15 527.93 475.37 528.16 475.77 528.58Z" id="fYfnn9rS"></path><path d="M401.55 536.5L401.55 547.32" id="f22Xla97i"></path><path d="M482.95 473.38L483.8 473.44L484.65 473.51L485.49 473.59L486.31 473.7L487.12 473.82L487.92 473.97L488.71 474.13L489.47 474.3L490.23 474.49L490.97 474.71L491.69 474.93L492.4 475.17L493.08 475.42L493.75 475.69L494.4 475.98L495.03 476.28L495.64 476.59L496.23 476.91L496.79 477.25L497.34 477.6L497.86 477.96L498.35 478.33L498.83 478.71L499.27 479.11L499.69 479.52L500.08 479.93L500.45 480.35L500.78 480.78L501.09 481.22L501.37 481.68L501.62 482.13L501.84 482.59L502.02 483.07L502.18 483.55L502.3 484.04L502.38 484.53L502.44 485.02L502.45 485.53L502.44 486.03L502.38 486.53L502.3 487.02L502.18 487.51L502.02 488L501.84 488.48L501.62 488.97L501.37 489.46L501.09 489.94L500.78 490.43L500.45 490.91L500.08 491.4L499.69 491.89L499.27 492.38L498.83 492.88L498.35 493.37L497.86 493.88L497.34 494.39L496.79 494.91L496.23 495.42L495.64 495.95L495.03 496.48L494.4 497.02L493.75 497.57L493.08 498.13L492.4 498.7L491.69 499.28L490.97 499.86L490.23 500.46L489.47 501.08L488.71 501.7L487.92 502.34L487.12 502.99L486.31 503.66L485.49 504.33L484.65 505.03L483.8 505.74L482.95 506.46L482.08 507.21L481.2 507.96L480.33 507.21L479.46 506.46L478.6 505.74L477.75 505.03L476.92 504.33L476.09 503.66L475.28 502.99L474.48 502.34L473.7 501.7L472.93 501.08L472.18 500.46L471.44 499.86L470.72 499.28L470.01 498.7L469.32 498.13L468.65 497.57L468 497.02L467.37 496.48L466.76 495.95L466.18 495.42L465.61 494.91L465.07 494.39L464.55 493.88L464.05 493.37L463.58 492.88L463.14 492.38L462.71 491.89L462.32 491.4L461.96 490.91L461.62 490.43L461.32 489.94L461.03 489.46L460.79 488.97L460.57 488.48L460.38 488L460.23 487.51L460.11 487.02L460.02 486.53L459.97 486.03L459.95 485.53L459.97 485.02L460.02 484.53L460.11 484.04L460.23 483.55L460.38 483.07L460.57 482.59L460.79 482.13L461.03 481.68L461.32 481.22L461.62 480.78L461.96 480.35L462.32 479.93L462.71 479.52L463.14 479.11L463.58 478.71L464.05 478.33L464.55 477.96L465.07 477.6L465.61 477.25L466.18 476.91L466.76 476.59L467.37 476.28L468 475.98L468.65 475.69L469.32 475.42L470.01 475.17L470.72 474.93L471.44 474.71L472.18 474.49L472.93 474.3L473.7 474.13L474.48 473.97L475.28 473.82L476.09 473.7L476.92 473.59L477.75 473.51L478.6 473.44L479.46 473.38L480.33 473.35L481.2 473.34L482.08 473.35L482.95 473.38ZM480.38 479.13L479.97 479.16L479.57 479.19L479.17 479.23L478.78 479.29L478.4 479.34L478.02 479.41L477.64 479.49L477.29 479.57L476.93 479.66L476.57 479.76L476.23 479.87L475.57 480.1L475.25 480.23L474.95 480.36L474.66 480.51L474.37 480.65L474.08 480.8L473.81 480.96L473.56 481.13L473.31 481.3L473.08 481.48L472.86 481.66L472.64 481.84L472.44 482.04L472.26 482.23L472.08 482.44L471.93 482.64L471.78 482.85L471.65 483.06L471.53 483.28L471.43 483.5L471.34 483.72L471.27 483.95L471.21 484.18L471.17 484.41L471.15 484.64L471.14 484.89L471.15 485.12L471.17 485.36L471.21 485.59L471.27 485.82L471.34 486.05L471.43 486.27L471.53 486.49L471.65 486.71L471.78 486.92L471.93 487.13L472.08 487.33L472.26 487.53L472.44 487.73L472.64 487.93L472.86 488.11L473.08 488.29L473.31 488.47L473.56 488.64L473.81 488.8L474.08 488.97L474.37 489.12L474.66 489.26L474.95 489.41L475.25 489.54L475.57 489.67L475.9 489.79L476.23 489.9L476.57 490.01L476.93 490.11L477.29 490.2L477.64 490.28L478.02 490.36L478.4 490.43L478.78 490.48L479.17 490.54L479.57 490.58L479.97 490.61L480.38 490.64L480.79 490.65L481.2 490.66L481.62 490.65L482.03 490.64L482.83 490.58L483.23 490.54L483.62 490.48L484 490.43L484.38 490.36L484.75 490.28L485.12 490.2L485.48 490.11L485.82 490.01L486.17 489.9L486.5 489.79L486.83 489.67L487.15 489.54L487.45 489.41L487.75 489.26L488.04 489.12L488.32 488.97L488.58 488.8L488.85 488.64L489.09 488.47L489.33 488.29L489.55 488.11L489.76 487.93L489.96 487.73L490.14 487.53L490.32 487.33L490.48 487.13L490.62 486.92L490.76 486.71L490.87 486.49L490.98 486.27L491.06 486.05L491.14 485.82L491.2 485.59L491.24 485.36L491.26 485.12L491.27 484.89L491.26 484.64L491.24 484.41L491.2 484.18L491.14 483.95L491.06 483.72L490.98 483.5L490.87 483.28L490.76 483.06L490.62 482.85L490.48 482.64L490.32 482.44L490.14 482.23L489.96 482.04L489.76 481.84L489.55 481.66L489.33 481.48L489.09 481.3L488.85 481.13L488.58 480.96L488.32 480.8L488.04 480.65L487.75 480.51L487.45 480.36L487.15 480.23L486.83 480.1L486.5 479.98L486.17 479.87L485.82 479.76L485.48 479.66L485.12 479.57L484.75 479.49L484.38 479.41L484 479.34L483.62 479.29L483.23 479.23L482.83 479.19L482.43 479.16L482.03 479.13L481.62 479.12L481.2 479.11L480.79 479.12L480.38 479.13Z" id="bGn9mqm4v"></path><path d="M502.45 561.14L519.25 560.05L532.99 558.41L524.59 550.76L519.25 560.05L523.83 569.34L536.81 566.06L545.97 558.41" id="b4AEuJxTi"></path><path d="M468.96 434.53L486.16 414.34L503.02 430.67" id="aKC0DdvnS"></path><path d="M454.77 563.62L454.77 552.72" id="b5mEKO3gvF"></path><path d="M503.02 433.31C499.96 433.31 497.47 430.71 497.47 427.5C497.47 424.3 499.96 421.69 503.02 421.69C506.08 421.69 508.57 424.3 508.57 427.5C508.57 430.71 506.08 433.31 503.02 433.31Z" id="g2fAPUWZZ"></path><path d="M412.08 458.62C412.13 458.66 412.37 458.87 412.81 459.25C421.77 459.21 426.76 459.2 427.76 459.19C442.54 459.16 442.71 459.16 443.32 458.62C443.65 458.3 443.99 458.12 444.07 458.18C444.13 458.23 444.13 457.79 444.1 457.16C444.02 456.43 443.79 455.85 443.38 455.49C442.79 454.96 442.42 454.94 432.45 454.89C426.75 454.83 419.99 454.83 417.36 454.89C412.97 454.94 412.59 454.99 412 455.52C411.08 456.32 411.13 457.79 412.08 458.62Z" id="bl13z23n9"></path><path d="M455.19 459.19C456.93 459.19 465.62 459.18 481.26 459.16C496.88 459.16 505.56 459.16 507.3 459.16C507.69 458.76 507.9 458.54 507.94 458.49C508.78 457.55 508.78 456.25 507.94 455.52C507.9 455.48 507.69 455.28 507.3 454.94C503.82 454.94 486.39 454.94 455.03 454.94C454.67 455.3 454.47 455.5 454.43 455.54C453.9 457.05 453.93 458.07 454.52 458.59C454.57 458.63 454.79 458.83 455.19 459.19Z" id="cIy8hDw68"></path><path d="M417.34 446.96C419.88 446.96 421.97 447.09 421.97 447.22C421.97 447.32 422.2 447.35 422.47 447.24C423.14 446.96 452.7 446.86 452.7 447.14C452.7 447.27 452.99 447.27 453.35 447.14C453.69 447.03 475.51 446.93 501.82 446.93C505.01 446.93 520.97 446.92 549.69 446.9C550.1 446.54 550.34 446.34 550.39 446.3C551.31 445.5 551.31 444.04 550.36 443.38C549.69 442.94 546.45 442.91 481.93 442.86C444.66 442.84 413.78 442.89 413.31 442.97C411.39 443.36 410.69 445.13 412.03 446.3C412.67 446.87 412.95 446.9 417.34 446.96Z" id="e1c8F5sgnm"></path><path d="M519.04 467.75C518.08 468.56 518.17 469.26 519.65 473.96C520.38 476.2 521.13 478.68 521.35 479.47C521.58 480.25 521.99 481.78 522.3 482.85C522.61 483.93 522.97 485.04 523.11 485.33C523.26 485.62 524.01 487.84 524.76 490.29C525.54 492.72 526.61 495.95 527.17 497.46C527.73 498.98 528.34 500.9 528.56 501.77C528.79 502.63 529.43 504.69 529.99 506.33C530.52 507.98 531.22 510.14 531.55 511.16C531.86 512.18 532.42 513.28 532.78 513.64C532.83 513.68 533.06 513.9 533.48 514.29C538.35 514.26 541.04 514.24 541.58 514.24C549.6 514.19 549.74 514.19 550.39 513.61C551.28 512.83 551.31 511.34 550.41 510.56C549.8 510.01 549.54 509.98 542.87 509.96C536.72 509.93 535.94 509.91 535.71 509.52C535.33 508.81 533.79 503.7 533.57 502.45C533.43 501.56 533.48 501.35 533.73 501.5C533.98 501.64 534.04 501.61 533.9 501.4C533.79 501.25 533.59 501.16 533.46 501.25C533.31 501.32 532.87 500.36 532.47 499.1C532.06 497.83 531.1 494.99 530.35 492.77C529.59 490.55 528.81 488.07 528.59 487.29C528.37 486.51 527.47 483.69 526.61 481.03C525.74 478.37 524.68 475.13 524.23 473.8C524.18 473.64 523.93 472.84 523.48 471.4C531.36 471.39 535.73 471.38 536.61 471.38C549.69 471.38 549.77 471.35 550.41 470.81C551.28 470.05 551.28 468.53 550.44 467.78C549.83 467.25 549.52 467.23 540.58 467.18C535.52 467.15 531.22 467.02 531.02 466.89C530.86 466.76 530.63 466.76 530.55 466.91C530.43 467.07 528.22 467.18 525.04 467.18C519.9 467.18 519.68 467.18 519.04 467.75Z" id="c6xuGzbenu"></path><path d="M418.35 528.8C421.79 528.95 422.02 528.93 422.4 528.43C422.84 527.86 422.95 527.51 423.06 526.11C423.12 525.56 423.03 525.2 422.92 525.27C422.79 525.35 422.68 525.3 422.68 525.14C422.68 524.47 421.02 524.07 418.21 524.1C416.64 524.1 415.18 524.18 414.96 524.25C413.25 524.85 412.73 526.86 414.03 528.01C414.66 528.58 415.02 528.64 418.35 528.8Z" id="a20UCajeGO"></path><path d="M419.68 542.65C424.35 542.62 426.66 542.7 426.92 542.91C427.19 543.12 427.59 543.12 428.4 542.86C429.18 542.62 430.19 542.57 431.94 542.7C433.28 542.83 437.56 542.88 441.39 542.83C445.25 542.78 452.15 542.75 456.76 542.78C466.84 542.8 466.2 542.8 468.72 542.78C469.81 542.75 471.53 542.75 472.54 542.78C473.55 542.8 484.86 542.8 497.69 542.78C510.51 542.75 524.34 542.78 528.37 542.86C532.42 542.93 535.8 542.91 535.86 542.8C535.94 542.7 539.04 542.65 542.76 542.67C549.1 542.73 549.57 542.67 550.27 542.2C551.31 541.5 551.33 540.06 550.39 539.23C550.34 539.19 550.1 538.99 549.69 538.63C509.15 538.6 486.63 538.58 482.13 538.57C444.96 538.57 414.12 538.57 413.59 538.63C411.46 538.82 410.52 541.1 412.11 542.18C412.78 542.65 413.37 542.67 419.68 542.65Z" id="b1oR21aSgi"></path><path d="" id="aaybaio8M"></path><path d="M453.39 528.56C453.82 528.56 455.98 528.55 459.86 528.54C463.75 528.54 465.91 528.54 466.34 528.54C466.71 528.13 466.91 527.9 466.95 527.86C467.75 527 467.75 525.84 466.95 524.96C466.91 524.91 466.69 524.69 466.32 524.28C462.67 524.23 460.66 524.21 460.25 524.2C456.92 524.18 453.94 524.25 453.61 524.36C452.18 524.85 451.74 526.71 452.79 527.86C452.83 527.9 453.03 528.13 453.39 528.56Z" id="dU3jTY8u"></path><path d="M501.5 528.61C503.37 528.64 505.07 528.74 505.24 528.84C505.41 528.95 505.62 528.93 505.73 528.77C505.82 528.61 507 528.51 508.38 528.51C510.64 528.51 510.92 528.46 511.52 527.86C512.4 527.05 512.4 525.9 511.58 524.96C511.54 524.91 511.32 524.69 510.95 524.28C507.72 524.25 505.93 524.23 505.57 524.23C502.65 524.23 499.7 524.23 499.07 524.28C497 524.44 496.1 526.4 497.42 527.88C498.05 528.56 498.14 528.58 501.5 528.61Z" id="b1xvJflIAd"></path><path d="M546.29 528.54C549.46 528.48 549.87 528.43 550.42 527.93C551.31 527.15 551.28 525.67 550.37 524.85C549.76 524.34 549.37 524.25 546.59 524.18C544.89 524.13 543.28 524.15 543.07 524.23C541.36 524.91 540.83 526.86 542.1 527.98C542.73 528.56 542.96 528.58 546.29 528.54Z" id="i1A3MDbkCX"></path><path d="M430.14 527.51C430.55 528.46 430.94 528.58 433.83 528.77C435.21 528.87 436.61 529.03 437 529.13C437.53 529.27 437.56 529.24 437.14 529.08C436.78 528.93 437.85 528.8 440.3 528.67C443.56 528.51 444.11 528.4 444.63 527.93C445.49 527.18 445.49 525.67 444.63 524.91C444 524.36 443.77 524.34 437.66 524.34C432.57 524.34 431.22 524.41 430.78 524.73C430.44 524.93 430.14 525.07 430.09 525.01C429.81 524.75 429.86 526.89 430.14 527.51Z" id="j4hLEnb7Ot"></path><path d="M412.03 470.82C412.07 470.87 412.28 471.06 412.67 471.4C413.55 471.4 417.92 471.4 425.8 471.4C433.68 471.42 438.05 471.42 438.93 471.43C438.44 472.93 438.18 473.76 438.12 473.93C437.65 475.34 436.62 478.58 435.78 481.16C434.93 483.74 434.18 486.04 434.07 486.24C433.98 486.46 433.88 486.82 433.85 487.03C433.71 488.15 431.17 495.5 430.8 495.82C430.72 495.93 430.63 496.26 430.63 496.6C430.63 497.33 429.29 501.4 428.93 501.77C428.79 501.9 428.68 502.35 428.68 502.76C428.68 503.52 427.17 508.65 426.69 509.49C426.49 509.85 425.58 509.91 419.57 509.93C412.86 509.96 412.67 509.96 412.03 510.53C411.08 511.37 411.1 512.81 412.08 513.66C412.67 514.19 413.06 514.29 414.23 514.24C415.04 514.24 416.47 514.26 417.45 514.34C418.87 514.45 419.15 514.52 418.9 514.81C418.65 515.07 418.79 515.15 419.57 515.12C420.35 515.1 420.49 515.02 420.24 514.76C420.02 514.47 420.55 514.42 423.11 514.39C428.37 514.39 428.87 514.34 429.63 513.66C429.99 513.35 430.44 512.57 430.63 511.92C430.83 511.29 431.11 510.77 431.24 510.77C431.38 510.77 431.44 510.66 431.33 510.53C431.11 510.14 432.67 505.55 432.98 505.73C433.12 505.81 433.15 505.76 433.04 505.58C432.92 505.42 433.04 504.61 433.28 503.78C433.57 502.97 433.82 501.98 433.9 501.59C433.95 501.16 434.79 498.59 435.78 495.85C436.72 493.08 437.7 490.16 437.9 489.37C438.09 488.6 438.49 487.47 438.73 486.87C439.18 485.93 440.16 482.7 440.88 479.85C441.05 479.28 441.81 476.85 442.62 474.45C444.27 469.45 444.35 468.61 443.35 467.72C443.3 467.68 443.07 467.47 442.65 467.09C434.89 467.09 430.57 467.09 429.71 467.09C422.61 467.07 415.85 467.09 414.71 467.15C413.03 467.2 412.5 467.33 412 467.78C411.1 468.56 411.13 470.05 412.03 470.82Z" id="hFX9mEO3m"></path><path d="M451.16 471.47C450.93 472.61 450.35 474.67 449.9 476.03C447.19 484.37 445.82 488.69 445.29 490.64C444.54 493.33 441.32 503.52 440.9 504.52C440.73 504.93 440.49 505.25 440.35 505.25C440.21 505.25 440.15 505.35 440.26 505.48C440.35 505.64 440.09 506.94 439.7 508.41C438.87 511.56 438.84 512.47 439.53 513.31C439.57 513.35 439.74 513.55 440.04 513.91C448.1 513.91 512.63 513.91 520.7 513.91C520.99 513.53 521.15 513.32 521.18 513.28C521.85 512.47 521.93 511.9 521.54 510.21C521.34 509.42 521.01 507.94 520.79 506.94C520.56 505.93 519.59 502.17 518.63 498.59C517.69 494.99 515.51 486.86 513.83 480.46C510.64 468.34 510.42 467.62 509.8 467.13C509.53 466.92 502.79 466.82 484.91 466.79C471.41 466.79 458.93 466.79 457.16 466.82C455.41 466.87 453.67 466.95 453.31 467.03C452.47 467.21 451.77 468.67 451.16 471.47ZM510.31 485.4C510.62 486.49 511.23 488.73 511.65 490.37C512.1 492.02 512.96 495.2 513.61 497.42C514.41 500.19 514.72 501.75 514.61 502.38C514.53 502.88 514.56 503.13 514.67 502.98C514.81 502.77 515.23 503.92 515.7 505.72C516.12 507.39 516.54 508.98 516.62 509.21C516.74 509.66 514.78 509.68 480.44 509.66C478.02 509.66 465.91 509.65 444.12 509.63C444.52 508.43 444.75 507.76 444.79 507.62C445.15 506.52 445.57 505.17 445.74 504.62C445.97 503.84 446.1 503.68 446.3 503.97C446.47 504.21 446.49 504.02 446.38 503.42C446.27 502.82 446.33 502.64 446.47 502.85C446.66 503.08 446.75 502.82 446.75 502.06C446.75 501.08 449.56 491.5 450.57 489.07C450.8 488.58 451.22 487.09 451.55 485.81C451.89 484.51 453 480.73 454.09 477.36C455.15 474.02 456.05 471.23 456.05 471.2C456.05 471.15 467.47 471.12 481.45 471.12C483.14 471.12 491.6 471.12 506.84 471.12C506.97 471.61 507.98 475.49 508.11 475.98C509.02 479.61 509.5 481.66 509.55 482.13C509.66 482.81 510 484.3 510.31 485.4Z" id="d7vbxFcFY"></path><path d="M534.74 459.16C535.73 459.17 540.7 459.18 549.66 459.19C550.07 458.83 550.31 458.63 550.36 458.59C551.28 457.79 551.31 456.3 550.41 455.52C550.37 455.48 550.15 455.28 549.77 454.94C547.76 454.94 537.69 454.94 519.57 454.94C519.21 455.3 519.02 455.5 518.98 455.54C518.42 457.21 518.46 458.25 519.1 458.67C519.73 459.12 520.71 459.16 534.74 459.16Z" id="c5UZk88r5"></path></defs><g><g><g><use xlink:href="#bsOST2oPA" opacity="1" fill-opacity="0" stroke="#c2c2c2" stroke-width="4" stroke-opacity="1"></use></g></g><g><use xlink:href="#gkq8Nzg5w" opacity="1" fill="#c2c2c2" fill-opacity="1"></use><g><use xlink:href="#gkq8Nzg5w" opacity="1" fill-opacity="0" stroke="#c2c2c2" stroke-width="1" stroke-opacity="1"></use></g></g><g><use xlink:href="#bNGi3nEwc" opacity="1" fill="#000000" fill-opacity="0"></use><g><use xlink:href="#bNGi3nEwc" opacity="1" fill-opacity="0" stroke="#c2c2c2" stroke-width="4" stroke-opacity="1"></use></g></g><g><use xlink:href="#fYfnn9rS" opacity="1" fill="#c2c2c2" fill-opacity="1"></use><g><use xlink:href="#fYfnn9rS" opacity="1" fill-opacity="0" stroke="#c2c2c2" stroke-width="1" stroke-opacity="1"></use></g></g><g><use xlink:href="#f22Xla97i" opacity="1" fill="#000000" fill-opacity="0"></use><g><use xlink:href="#f22Xla97i" opacity="1" fill-opacity="0" stroke="#c2c2c2" stroke-width="4" stroke-opacity="1"></use></g></g><g><use xlink:href="#bGn9mqm4v" opacity="1" fill="#c2c2c2" fill-opacity="1"></use><g><use xlink:href="#bGn9mqm4v" opacity="1" fill-opacity="0" stroke="#000000" stroke-width="1" stroke-opacity="0"></use></g></g><g><use xlink:href="#b4AEuJxTi" opacity="1" fill="#ffffff" fill-opacity="1"></use><g><use xlink:href="#b4AEuJxTi" opacity="1" fill-opacity="0" stroke="#c2c2c2" stroke-width="5" stroke-opacity="1"></use></g></g><g><use xlink:href="#aKC0DdvnS" opacity="1" fill="#000000" fill-opacity="0"></use><g><use xlink:href="#aKC0DdvnS" opacity="1" fill-opacity="0" stroke="#c2c2c2" stroke-width="3" stroke-opacity="1"></use></g></g><g><use xlink:href="#b5mEKO3gvF" opacity="1" fill="#000000" fill-opacity="0"></use><g><use xlink:href="#b5mEKO3gvF" opacity="1" fill-opacity="0" stroke="#c2c2c2" stroke-width="4" stroke-opacity="1"></use></g></g><g><use xlink:href="#g2fAPUWZZ" opacity="1" fill="#ffffff" fill-opacity="1"></use><g><use xlink:href="#g2fAPUWZZ" opacity="1" fill-opacity="0" stroke="#c2c2c2" stroke-width="4" stroke-opacity="1"></use></g></g><g><use xlink:href="#bl13z23n9" opacity="1" fill="#c2c2c2" fill-opacity="1"></use></g><g><use xlink:href="#cIy8hDw68" opacity="1" fill="#c2c2c2" fill-opacity="1"></use></g><g><g><use xlink:href="#e1c8F5sgnm" opacity="1" fill-opacity="0" stroke="#c2c2c2" stroke-width="3" stroke-opacity="1"></use></g></g><g><use xlink:href="#c6xuGzbenu" opacity="1" fill="#c2c2c2" fill-opacity="1"></use><g><use xlink:href="#c6xuGzbenu" opacity="1" fill-opacity="0" stroke="#000000" stroke-width="1" stroke-opacity="0"></use></g></g><g><use xlink:href="#a20UCajeGO" opacity="1" fill="#c2c2c2" fill-opacity="1"></use><g><use xlink:href="#a20UCajeGO" opacity="1" fill-opacity="0" stroke="#c2c2c2" stroke-width="1" stroke-opacity="1"></use></g></g><g><g><use xlink:href="#b1oR21aSgi" opacity="1" fill-opacity="0" stroke="#c2c2c2" stroke-width="3" stroke-opacity="1"></use></g></g><g><use xlink:href="#aaybaio8M" opacity="1" fill="#c2c2c2" fill-opacity="1"></use><g><use xlink:href="#aaybaio8M" opacity="1" fill-opacity="0" stroke="#c2c2c2" stroke-width="4" stroke-opacity="1"></use></g></g><g><use xlink:href="#dU3jTY8u" opacity="1" fill="#c2c2c2" fill-opacity="1"></use><g><use xlink:href="#dU3jTY8u" opacity="1" fill-opacity="0" stroke="#c2c2c2" stroke-width="1" stroke-opacity="1"></use></g></g><g><use xlink:href="#b1xvJflIAd" opacity="1" fill="#c2c2c2" fill-opacity="1"></use><g><use xlink:href="#b1xvJflIAd" opacity="1" fill-opacity="0" stroke="#c2c2c2" stroke-width="1" stroke-opacity="1"></use></g></g><g><use xlink:href="#i1A3MDbkCX" opacity="1" fill="#c2c2c2" fill-opacity="1"></use><g><use xlink:href="#i1A3MDbkCX" opacity="1" fill-opacity="0" stroke="#c2c2c2" stroke-width="1" stroke-opacity="1"></use></g></g><g><use xlink:href="#j4hLEnb7Ot" opacity="1" fill="#c2c2c2" fill-opacity="1"></use><g><use xlink:href="#j4hLEnb7Ot" opacity="1" fill-opacity="0" stroke="#c2c2c2" stroke-width="1" stroke-opacity="1"></use></g></g><g><use xlink:href="#hFX9mEO3m" opacity="1" fill="#c2c2c2" fill-opacity="1"></use><g><use xlink:href="#hFX9mEO3m" opacity="1" fill-opacity="0" stroke="#000000" stroke-width="1" stroke-opacity="0"></use></g></g><g><use xlink:href="#d7vbxFcFY" opacity="1" fill="#ff0066" fill-opacity="1"></use><g><use xlink:href="#d7vbxFcFY" opacity="1" fill-opacity="0" stroke="#000000" stroke-width="1" stroke-opacity="0"></use></g></g><g><use xlink:href="#c5UZk88r5" opacity="1" fill="#c2c2c2" fill-opacity="1"></use></g></g></svg>