<?xml version="1.0" encoding="UTF-8" standalone="no"?>
<!DOCTYPE svg PUBLIC "-//W3C//DTD SVG 1.1//EN" "http://www.w3.org/Graphics/SVG/1.1/DTD/svg11.dtd">
<svg version="1.1" xmlns="http://www.w3.org/2000/svg" xmlns:xlink="http://www.w3.org/1999/xlink" preserveAspectRatio="xMidYMid meet" viewBox="26.743570295107276 419.5780747403188 159.00000000000003 159.4999999999999" width="155" height="155"><defs><path d="M53.56 521.44C53.94 521.47 60.35 521.47 67.83 521.47C68.74 521.46 73.27 521.45 81.45 521.42C81.49 521.37 81.73 521.12 82.16 520.66L82.88 519.92L82.34 518.99L81.78 518.06L52.98 518.06C52.66 518.44 52.48 518.66 52.44 518.7C52.07 519.27 51.88 519.64 51.88 519.82C51.88 520.51 52.77 521.36 53.56 521.44Z" id="g3JgLqZXl"></path><path d="M66.07 514.39C83 514.39 81.45 514.44 81.97 513.84C82.49 513.25 82.55 511.98 82.08 511.52C81.83 511.28 78.25 511.21 67.08 511.18C58.99 511.15 52.25 511.21 52.09 511.31C51.62 511.62 51.67 513.25 52.18 513.84C52.7 514.44 51.37 514.39 66.07 514.39Z" id="g1RieKesgm"></path><path d="M117.58 477.63C117.4 477.71 116.49 478.02 115.56 478.36C114.65 478.69 113.19 479.34 112.34 479.83C111.49 480.29 110.59 480.73 110.35 480.78C110.12 480.86 109.16 481.56 108.24 482.39C107.32 483.22 106.31 484.07 106.02 484.28C105.73 484.48 105.48 484.77 105.48 484.9C105.48 485 104.9 485.88 104.19 486.83C103.45 487.77 102.37 489.42 101.77 490.48C101.16 491.54 100.6 492.44 100.51 492.5C100.4 492.55 100.33 492.78 100.33 493.01C100.33 493.25 100.13 493.82 99.91 494.28C99.66 494.72 99.35 495.6 99.21 496.22C99.08 496.84 98.88 497.56 98.77 497.85C98.65 498.13 98.41 499.5 98.19 500.9C97.62 504.72 97.83 510.51 98.65 513.49C98.99 514.71 99.32 515.97 99.39 516.33C99.46 516.69 99.57 517.03 99.64 517.11C99.7 517.18 100.22 518.22 100.76 519.43C101.9 522.02 103.2 524.24 103.51 524.14C103.63 524.11 103.67 524.16 103.63 524.27C103.47 524.55 107.43 529.26 107.81 529.26C107.88 529.26 108.69 529.83 109.58 530.5C110.5 531.2 112.03 532.13 113.01 532.59C113.97 533.08 114.98 533.57 115.23 533.73C115.48 533.89 115.75 533.99 115.83 533.96C115.92 533.94 116.41 534.09 116.93 534.3C117.45 534.53 118.34 534.76 118.9 534.84C120.6 535.1 127.08 535.02 127.91 534.74C131.44 533.47 132.57 533.03 133.21 532.59C133.62 532.33 134.09 532.1 134.27 532.1C134.43 532.1 134.6 532 134.65 531.89C134.69 531.77 135.39 531.25 136.21 530.7C138.12 529.49 138.99 528.69 141.34 526C143.03 524.09 143.45 523.39 144.68 520.65C145.47 518.92 146.16 517.45 146.23 517.37C146.29 517.29 146.36 517.11 146.36 516.98C146.36 516.82 146.7 515.56 147.1 514.14C147.53 512.71 147.91 511.13 147.95 510.64C148.15 508.55 148.22 503.41 148.04 502.48C147.93 501.91 147.64 500.41 147.39 499.14C146.94 496.92 145.49 492.65 144.86 491.8C144.41 491.18 143.11 488.77 143.11 488.57C143.11 488.13 140.4 484.87 138.86 483.45C137.94 482.59 137 481.74 136.78 481.54C136.57 481.33 136.3 481.17 136.21 481.17C136.13 481.17 135.05 480.58 133.8 479.88C130.55 477.97 128.11 477.3 123.85 477.11C121.95 477.03 120.33 477.03 120.27 477.11C120.2 477.19 119.64 477.32 119.04 477.37C118.41 477.45 117.76 477.55 117.58 477.63ZM138.27 487.35C140.54 489.86 142.87 493.48 142.89 494.51C142.89 494.8 142.98 495.13 143.09 495.29C143.45 495.73 144.24 498.52 144.7 501.02C145.11 503.12 145.17 504.08 145.06 506.77C144.93 510.51 144.66 512.12 143.74 514.65C143.38 515.63 143 516.85 142.89 517.34C142.78 517.83 142.51 518.53 142.29 518.89C142.06 519.25 141.72 519.9 141.55 520.34C141.17 521.22 137.14 525.95 136.32 526.46C136.01 526.65 135.07 527.35 134.22 528.02C133.35 528.71 132.57 529.26 132.45 529.26C132.34 529.26 131.98 529.41 131.67 529.62C129.16 531.12 124.46 531.97 120.85 531.56C118.03 531.23 116.46 530.7 113.66 529.15C111.31 527.84 107.59 524.92 107.34 524.19C107.28 523.99 107.14 523.83 107.01 523.83C106.74 523.83 105.73 522.48 105.71 522.1C105.71 521.94 105.62 521.76 105.51 521.71C105.17 521.58 103.38 518.11 102.62 516.18C101.27 512.76 100.94 510.72 100.92 506.25C100.89 502.73 100.96 501.93 101.5 499.63C102.19 496.5 103.56 493.12 104.79 491.36C105.31 490.66 105.71 489.96 105.71 489.81C105.71 489.34 109.56 485.23 110.55 484.66C111.02 484.38 111.47 484.09 111.53 484.01C112.18 483.24 115.88 481.38 116.95 481.27C117.42 481.25 118.32 481.1 118.97 480.94C119.62 480.78 120.36 480.61 120.6 480.55C121.66 480.32 124.21 480.42 126.7 480.81C129.18 481.2 131.26 481.82 132.61 482.62C134.09 483.47 136.86 485.8 138.27 487.35Z" id="c5XAYgul1"></path><path d="M30.65 514.39C29.05 514.39 27.74 512.75 27.74 510.73C27.74 508.71 29.05 507.07 30.65 507.07C32.26 507.07 33.56 508.71 33.56 510.73C33.56 512.75 32.26 514.39 30.65 514.39Z" id="b8exiBW5hG"></path><path d="M30.65 521.47L30.65 514.39" id="bGX7iU4u"></path><path d="M30.65 499.21L30.65 506.03" id="b1EDF3gQ0j"></path><path d="" id="b1kdRI7M5x"></path><path d="M45.1 428.63C45.03 428.55 44.68 428.78 44.35 429.14C43.98 429.48 43.59 429.76 43.49 429.76C43.2 429.76 41.86 431.29 41.86 431.62C41.86 431.75 41.56 432.35 41.18 432.94C40.25 434.44 39.72 435.76 39.28 437.62C38.79 439.84 38.42 538.16 38.94 540.41C39.3 542.11 40.15 544 41.15 545.35C41.56 545.91 41.81 546.35 41.71 546.35C41.35 546.35 42.86 547.72 43.27 547.75C43.49 547.78 44.12 548.03 44.66 548.35C47.29 549.79 43.88 549.71 97.86 549.71C131.01 549.71 147.82 549.61 148.55 549.43C149.13 549.3 150.3 548.84 151.13 548.39C151.96 547.98 152.76 547.65 152.91 547.65C153.06 547.65 153.42 547.26 153.72 546.79C155.69 543.69 156.13 542.89 156.56 541.29C157.08 539.5 157.08 539.43 157.03 503.31C157.02 500.9 157 488.83 156.95 467.12C156.65 466.23 156.48 465.74 156.44 465.64C155.83 463.94 154.73 462.18 153.64 461.14C153.23 460.73 152.66 460.19 152.43 459.93C152.15 459.7 151.89 459.49 151.81 459.49C151.74 459.49 151.33 459.23 150.91 458.92C150.48 458.59 150.08 458.35 150.01 458.4C149.94 458.43 149.16 458.3 148.26 458.07C147.23 457.84 145.41 457.68 143.36 457.68C143.14 457.68 142.04 457.68 140.07 457.68C139.82 456.47 139.69 455.8 139.66 455.66C139.22 453.73 138.73 452.49 138.15 451.79C137.98 451.61 137.83 451.35 137.83 451.24C137.83 450.5 132.52 445.92 131.38 445.68C131.11 445.64 130.4 445.43 129.79 445.27C129.06 445.04 125.24 444.91 118 444.83C117.29 444.82 113.73 444.78 107.31 444.7C106.29 443.68 105.72 443.11 105.61 443C104.68 442.04 103.61 440.8 103.22 440.26C102.83 439.71 102.51 439.35 102.51 439.46C102.51 439.59 100.37 437.42 97.76 434.65C95.16 431.88 93.01 429.5 93.01 429.32C93.01 429.17 92.72 428.91 92.35 428.75C91.97 428.6 91.23 428.16 90.7 427.82C90.16 427.46 89.28 427.05 88.75 426.87C87.65 426.53 54.16 426.4 51.36 426.71C48.53 427.05 48.17 427.12 46.68 427.95C45.85 428.39 45.15 428.67 45.1 428.63ZM100.24 442.07C101.64 443.47 102.76 444.7 102.76 444.83C102.76 445.17 105.53 447.88 106.14 448.14C106.46 448.27 111.23 448.4 117.22 448.4C123 448.4 128.26 448.5 128.89 448.63C130.33 448.95 132.45 450.03 132.91 450.73C133.08 450.99 133.37 451.22 133.52 451.22C134.28 451.24 136.61 455.74 136.61 457.17C136.61 457.66 136.42 457.66 92.94 457.68C53.11 457.68 49.12 457.71 47.34 458.12C46.27 458.35 45.1 458.77 44.73 459.03C44.39 459.29 44 459.49 43.86 459.49C43.73 459.49 43.49 459.67 43.32 459.91C43.12 460.11 42.78 460.42 42.54 460.55C42.1 460.81 42.08 460.5 42.15 449.23C42.2 441.42 42.32 437.46 42.49 437.13C42.64 436.85 42.98 436.15 43.22 435.58C43.81 434.26 46.12 431.78 47.44 431.08C49.72 429.84 50.26 429.79 69.63 429.84C86.43 429.89 87.85 429.92 88.72 430.35C89.6 430.77 92.77 433.77 92.77 434.18C92.77 434.36 94.18 435.83 100.24 442.07ZM153.79 466.86C153.79 474.25 153.79 533.4 153.79 540.79C153.35 541.63 153.11 542.1 153.06 542.19C152.28 543.66 151.03 544.88 149.28 545.86C149.21 545.91 148.84 546.11 148.18 546.48C138.15 546.48 57.86 546.48 47.83 546.48C47.13 546.14 46.73 545.95 46.66 545.91C44.2 544.7 42.42 542.55 42.15 540.46C42.08 539.92 42.01 523.09 42.01 503.05C42.01 500.62 41.99 488.47 41.98 466.6C42.32 465.95 42.5 465.59 42.54 465.51C43.22 464.2 44.9 462.52 46.17 461.89C47.02 461.46 48.51 461.43 66.7 461.3C77.49 461.22 100.32 461.2 117.42 461.22C119.49 461.23 129.87 461.24 148.55 461.27C148.67 461.34 149.6 461.86 149.72 461.92C151.5 463.39 152.68 464.66 153.23 465.75C153.26 465.82 153.45 466.19 153.79 466.86Z" id="bOSjRhMBw"></path><path d="M55.11 448.66C56.38 448.66 56.58 448.17 56.65 444.52C56.74 441.35 56.72 441.24 56.2 440.78C55.55 440.21 54.72 440.18 54.05 440.72C53.58 441.08 53.56 441.29 53.56 444.29C53.56 447.96 53.8 448.66 55.11 448.66Z" id="aJjGNJTND"></path><path d="M85.06 447.92C85.15 448.07 85.46 448.35 85.74 448.51C86.38 448.9 87.48 448.49 87.68 447.79C87.75 447.53 87.82 445.93 87.84 444.2C87.88 441.35 87.84 441.02 87.44 440.65C86.94 440.21 85.65 440.13 85.44 440.52C85.35 440.68 85.2 440.73 85.08 440.65C84.84 440.47 84.81 447.5 85.06 447.92Z" id="c4167Odp4C"></path><path d="M70.69 452.63C76.14 452.94 78.78 451.39 76.63 449.14C76.32 448.81 75.91 448.6 75.76 448.68C75.58 448.76 74.59 448.96 73.54 449.14C71.99 449.4 71.28 449.38 69.78 449.12C66.73 448.55 66.84 448.55 66.33 449.48C65.86 450.3 65.86 450.33 66.26 451.08C66.82 452.17 67.74 452.48 70.69 452.63Z" id="a1ekv6omhM"></path><path d="M54.15 481.36C53.88 481.64 53.41 482.1 53.07 482.34C52.73 482.59 52.49 482.91 52.55 483.01C52.62 483.11 52.33 483.5 51.93 483.86C51.55 484.2 50.65 485.1 49.98 485.82C49.31 486.55 48.46 487.35 48.12 487.61C48.08 487.64 47.87 487.79 47.49 488.05C47.55 498.75 47.58 504.7 47.58 505.89C47.67 522.95 47.76 525.66 48.21 525.66C48.32 525.66 48.41 525.82 48.41 526C48.41 526.91 50.41 529.85 52.11 531.43C53.09 532.36 53.94 533.08 54.01 533.03C54.08 532.98 54.53 533.19 55.02 533.47C55.87 533.96 56.38 533.96 68.01 533.96C74.66 533.96 80.26 533.91 80.44 533.86C81.54 533.52 83.53 532.46 84.56 531.64C86.04 530.45 87.88 527.45 88.53 525.15C88.56 525.02 88.74 524.37 89.06 523.21C89.06 519.46 89.06 489.47 89.06 485.73C88.41 484.2 88.04 483.36 87.97 483.19C86.96 480.83 86.78 480.55 85.14 479.13C83.24 477.45 81.49 476.44 79.97 476.16C79.44 476.05 74.64 475.95 69.33 475.92C68.69 475.92 65.46 475.91 59.66 475.9C59.47 476.1 57.98 477.69 57.8 477.89C56.53 479.18 55.88 479.81 55.85 479.77C55.76 479.67 54.86 480.5 54.15 481.36ZM83.62 482C84.87 483.47 85.19 484.02 85.61 485.52C86.09 487.25 86.11 487.56 86.18 503.82C86.22 520.08 86.13 523.31 85.5 524.45C85.35 524.76 85.14 525.33 85.05 525.72C84.83 526.83 82.9 528.9 81.2 529.85C81.1 529.91 80.58 530.19 79.66 530.71C72.92 530.71 69.19 530.71 68.43 530.71C60.3 530.71 57.06 530.63 56.68 530.39C56.38 530.24 55.89 530.03 55.56 529.96C54.03 529.57 52.51 527.76 51.34 524.89C51.31 524.79 51.11 524.32 50.76 523.47C50.76 522.37 50.74 516.9 50.7 507.05L50.63 490.64L54.46 490.69C56.74 490.72 58.01 490.73 58.27 490.74C59.03 490.21 59.46 489.92 59.54 489.86C61.34 488.62 61.65 487.64 61.8 482.93C61.81 482.69 61.85 481.5 61.92 479.36C67.48 479.41 70.57 479.44 71.19 479.44C78.76 479.49 80.48 479.6 80.64 479.88C80.75 480.06 81.14 480.22 81.47 480.22C81.99 480.22 82.46 480.63 83.62 482ZM55.94 487.27C52.87 487.53 52.71 487.33 54.57 485.44C55.4 484.61 56.63 483.32 57.33 482.57C57.41 482.48 57.84 482.04 58.6 481.25C58.64 482.49 58.67 483.18 58.67 483.32C58.71 484.48 58.67 485.59 58.58 485.82C58.49 486.06 58.4 486.29 58.4 486.37C58.29 486.91 57.77 487.12 55.94 487.27Z" id="a4KVsVwGW"></path><path d="M51.7 497.74C51.66 498.48 51.64 498.9 51.63 498.98C51.56 499.93 51.63 500.3 51.97 500.56C52.3 500.86 54.34 500.91 63.41 500.94C74.14 500.94 74.45 500.91 74.88 500.42C75.82 499.34 75.11 497.61 73.72 497.56C71.05 497.51 53.8 497.45 53.65 497.51C53.56 497.53 53.09 497.61 52.59 497.63C52.53 497.64 52.23 497.68 51.7 497.74Z" id="a1lRTOSwb"></path><path d="M52.57 507.72C61.21 507.77 66.01 507.79 66.97 507.8C79.62 507.85 81.42 507.82 81.86 507.46C82.58 506.92 82.58 505.7 81.84 504.88C81.81 504.84 81.63 504.62 81.31 504.23C79.41 504.23 69.91 504.23 52.81 504.23C52.49 504.62 52.31 504.84 52.28 504.88C51.8 505.83 51.76 506.57 52.14 507.1C52.17 507.14 52.31 507.35 52.57 507.72Z" id="a9oxpGtin"></path><path d="M121.61 512.3C120.68 511.24 120.16 510.66 120.06 510.54C118.94 509.25 118.36 508.76 117.93 508.76C117.1 508.78 116.45 509.53 116.45 510.52C116.45 511.24 116.81 511.73 119.36 514.5C122.48 517.88 123.22 518.37 124.02 517.63C124.29 517.37 124.52 517.06 124.52 516.93C124.52 516.67 126.78 514.11 128.37 512.56C129.71 511.21 129.89 510.41 129.04 509.28C128.37 508.39 127.5 508.71 125.95 510.44C125.85 510.54 125.38 511.07 124.52 512.02C124.52 506.88 124.52 504.03 124.52 503.46C124.52 494.9 124.52 494.9 124.02 494.51C123.33 493.94 122.59 494 122.05 494.62C121.63 495.11 121.61 495.47 121.61 503.72C121.61 504.29 121.61 507.15 121.61 512.3Z" id="aWLx5JM44"></path><path d="M116.96 439.05C119.27 439.05 121.15 437.04 121.15 434.56C121.15 432.08 119.27 430.07 116.96 430.07C114.64 430.07 112.76 432.08 112.76 434.56C112.76 437.04 114.64 439.05 116.96 439.05Z" id="b4WyWtGAPO"></path><path d="M116.45 430.07L116.45 421.08" id="aoAI75tGB"></path><path d="M86.12 566L74.16 567.06L64.37 568.66L70.35 576.08L74.16 567.06L70.9 558.05L61.65 561.23L55.12 568.66" id="aU6dxfv0Y"></path><path d="M161.8 502.43L172.37 484.4L182.74 498.98" id="aauctOc9x"></path></defs><g><g><use xlink:href="#g3JgLqZXl" opacity="1" fill="#ff0066" fill-opacity="1"></use><g><use xlink:href="#g3JgLqZXl" opacity="1" fill-opacity="0" stroke="#000000" stroke-width="1" stroke-opacity="0"></use></g></g><g><use xlink:href="#g1RieKesgm" opacity="1" fill="#c2c2c2" fill-opacity="1"></use><g><use xlink:href="#g1RieKesgm" opacity="1" fill-opacity="0" stroke="#000000" stroke-width="1" stroke-opacity="0"></use></g></g><g><use xlink:href="#c5XAYgul1" opacity="1" fill="#c2c2c2" fill-opacity="1"></use><g><use xlink:href="#c5XAYgul1" opacity="1" fill-opacity="0" stroke="#c2c2c2" stroke-width="1" stroke-opacity="0"></use></g></g><g><use xlink:href="#b8exiBW5hG" opacity="1" fill="#ffffff" fill-opacity="1"></use><g><use xlink:href="#b8exiBW5hG" opacity="1" fill-opacity="0" stroke="#c2c2c2" stroke-width="2" stroke-opacity="1"></use></g></g><g><use xlink:href="#bGX7iU4u" opacity="1" fill="#000000" fill-opacity="0"></use><g><use xlink:href="#bGX7iU4u" opacity="1" fill-opacity="0" stroke="#c2c2c2" stroke-width="3" stroke-opacity="1"></use></g></g><g><use xlink:href="#b1EDF3gQ0j" opacity="1" fill="#000000" fill-opacity="0"></use><g><use xlink:href="#b1EDF3gQ0j" opacity="1" fill-opacity="0" stroke="#c2c2c2" stroke-width="3" stroke-opacity="1"></use></g></g><g><use xlink:href="#b1kdRI7M5x" opacity="1" fill="#000000" fill-opacity="0"></use><g><use xlink:href="#b1kdRI7M5x" opacity="1" fill-opacity="0" stroke="#000000" stroke-width="4" stroke-opacity="1"></use></g></g><g><use xlink:href="#bOSjRhMBw" opacity="1" fill="#c2c2c2" fill-opacity="1"></use><g><use xlink:href="#bOSjRhMBw" opacity="1" fill-opacity="0" stroke="#000000" stroke-width="1" stroke-opacity="0"></use></g></g><g><use xlink:href="#aJjGNJTND" opacity="1" fill="#ff0066" fill-opacity="1"></use><g><use xlink:href="#aJjGNJTND" opacity="1" fill-opacity="0" stroke="#000000" stroke-width="1" stroke-opacity="0"></use></g></g><g><use xlink:href="#c4167Odp4C" opacity="1" fill="#ff0066" fill-opacity="1"></use><g><use xlink:href="#c4167Odp4C" opacity="1" fill-opacity="0" stroke="#000000" stroke-width="1" stroke-opacity="0"></use></g></g><g><use xlink:href="#a1ekv6omhM" opacity="1" fill="#ff0066" fill-opacity="1"></use><g><use xlink:href="#a1ekv6omhM" opacity="1" fill-opacity="0" stroke="#000000" stroke-width="1" stroke-opacity="0"></use></g></g><g><use xlink:href="#a4KVsVwGW" opacity="1" fill="#c2c2c2" fill-opacity="1"></use><g><use xlink:href="#a4KVsVwGW" opacity="1" fill-opacity="0" stroke="#000000" stroke-width="1" stroke-opacity="0"></use></g></g><g><use xlink:href="#a1lRTOSwb" opacity="1" fill="#c2c2c2" fill-opacity="1"></use><g><use xlink:href="#a1lRTOSwb" opacity="1" fill-opacity="0" stroke="#000000" stroke-width="1" stroke-opacity="0"></use></g></g><g><use xlink:href="#a9oxpGtin" opacity="1" fill="#c2c2c2" fill-opacity="1"></use><g><use xlink:href="#a9oxpGtin" opacity="1" fill-opacity="0" stroke="#c2c2c2" stroke-width="1" stroke-opacity="0"></use></g></g><g><use xlink:href="#aWLx5JM44" opacity="1" fill="#ff0066" fill-opacity="1"></use><g><use xlink:href="#aWLx5JM44" opacity="1" fill-opacity="0" stroke="#000000" stroke-width="1" stroke-opacity="0"></use></g></g><g><use xlink:href="#b4WyWtGAPO" opacity="1" fill="#ffffff" fill-opacity="1"></use><g><use xlink:href="#b4WyWtGAPO" opacity="1" fill-opacity="0" stroke="#c2c2c2" stroke-width="1" stroke-opacity="1"></use></g></g><g><use xlink:href="#aoAI75tGB" opacity="1" fill="#000000" fill-opacity="0"></use><g><use xlink:href="#aoAI75tGB" opacity="1" fill-opacity="0" stroke="#c2c2c2" stroke-width="3" stroke-opacity="1"></use></g></g><g><use xlink:href="#aU6dxfv0Y" opacity="1" fill="#ffffff" fill-opacity="1"></use><g><use xlink:href="#aU6dxfv0Y" opacity="1" fill-opacity="0" stroke="#c2c2c2" stroke-width="3" stroke-opacity="1"></use></g></g><g><use xlink:href="#aauctOc9x" opacity="1" fill="#c2c2c2" fill-opacity="0"></use><g><use xlink:href="#aauctOc9x" opacity="1" fill-opacity="0" stroke="#c2c2c2" stroke-width="3" stroke-opacity="1"></use></g></g></g></svg>