<?xml version="1.0" encoding="UTF-8" standalone="no"?>
<!DOCTYPE svg PUBLIC "-//W3C//DTD SVG 1.1//EN" "http://www.w3.org/Graphics/SVG/1.1/DTD/svg11.dtd">
<svg version="1.1" xmlns="http://www.w3.org/2000/svg" xmlns:xlink="http://www.w3.org/1999/xlink" preserveAspectRatio="xMidYMid meet" viewBox="320.53481627340284 224.7701992264724 159.49999999999994 159.9995485439831" width="155" height="155"><defs><path d="M432.51 234.19C430.73 234.19 429.28 232.53 429.28 230.48C429.28 228.43 430.73 226.77 432.51 226.77C434.3 226.77 435.75 228.43 435.75 230.48C435.75 232.53 434.3 234.19 432.51 234.19Z" id="g45mtS9p6"></path><path d="M325.27 311.69C323.49 311.69 322.03 310.03 322.03 307.98C322.03 305.94 323.49 304.27 325.27 304.27C327.06 304.27 328.5 305.94 328.5 307.98C328.5 310.03 327.06 311.69 325.27 311.69Z" id="d2IIEHU4OP"></path><path d="M325.27 318.87L325.27 311.69" id="ausENnUGT"></path><path d="M325.27 296.31L325.27 303.21" id="aEubZzSnz"></path><path d="M473.34 284.43C475.38 284.43 477.03 282.77 477.03 280.72C477.03 278.67 475.38 277.01 473.34 277.01C471.3 277.01 469.64 278.67 469.64 280.72C469.64 282.77 471.3 284.43 473.34 284.43Z" id="a1llHFI865"></path><path d="" id="b2UJNc7oOF"></path><path d="M473.34 291.39L473.34 284.43" id="cIrFvigOz"></path><path d="M359.18 251.35C352.73 251.42 349.15 251.46 348.43 251.47C341.75 251.53 337.26 251.82 336.54 252.23C335.89 252.58 334.9 253.75 334.35 254.75C333.31 256.57 333.25 258.04 333.25 296.5C333.25 334.96 333.31 336.43 334.35 338.25C336.27 341.65 335.83 341.59 362.02 341.71C375.29 341.77 388.77 341.82 392.05 341.88C392.45 341.89 394.4 341.91 397.92 341.94C397.92 343.7 397.92 344.68 397.92 344.87C397.92 349.45 398.96 353.55 401.48 359.24C406.63 370.67 416.22 378.59 427.95 380.99C433.15 382.05 436.44 382.05 441.65 380.88C452.94 378.41 462.53 370.38 467.51 359.24C471.02 351.26 472.01 343.88 470.58 335.61C469.76 330.57 466.91 323.3 464.44 319.84C464.36 319.71 463.92 319.09 463.13 317.96C463.13 313.78 463.13 292.89 463.13 255.28C461.09 253.1 459.96 251.89 459.73 251.65C454.93 251.61 452.26 251.59 451.73 251.58C447.29 251.58 436.06 251.47 426.74 251.47C425.61 251.46 419.97 251.42 409.81 251.35C408.53 247.3 407.82 245.06 407.67 244.61C406.19 239.98 404.99 237.34 403.89 236.11C403.79 235.99 403.26 235.4 402.3 234.35C392.01 234.27 386.29 234.24 385.15 234.23C371.45 234.11 367.72 234.23 366.3 234.87C364.16 235.93 363.78 236.69 361.2 244.85C361.07 245.28 360.39 247.45 359.18 251.35ZM427.29 264.43C428.88 264.44 436.8 264.5 451.07 264.6C451.07 268.85 451.07 302.86 451.07 307.11C448.22 306.06 446.62 305.47 446.31 305.35C442.03 303.77 440.77 303.59 434.91 303.59C427.35 303.53 422.63 304.77 416.66 308.34C410.58 311.92 403.29 320.31 400.88 326.46C400.83 326.6 400.57 327.26 400.11 328.45C396.46 328.45 378.23 328.45 345.42 328.45L345.42 296.5C345.39 277.33 345.37 266.67 345.36 264.54C351.19 264.54 354.42 264.54 355.07 264.54C368.11 264.54 367.83 264.72 370.9 255.75C372.16 252.05 373.31 248.59 373.42 248.07C373.64 247.25 375.01 247.13 384.66 247.13C385.39 247.13 389.04 247.13 395.62 247.13C395.86 247.86 397.79 253.73 398.03 254.46C399.82 259.54 401.11 262.4 401.92 263.02C403.46 264.19 404.06 264.25 427.29 264.43ZM458.09 348.69C456.17 358.48 447.57 366.8 437.92 368.27C423.24 370.44 409.98 358.3 409.98 342.76C409.98 338.48 410.96 333.56 411.67 334.08C411.95 334.26 412 334.03 411.84 333.56C411.35 332.15 414.25 326.75 417.1 323.77C419.73 320.89 423.78 318.31 427.78 316.97C431.13 315.85 437.87 315.97 441.7 317.26C450.64 320.24 457.38 328.63 458.69 338.54C459.18 342.35 459.13 343.46 458.09 348.69Z" id="g2zeFh8lE"></path><path d="M374.85 319.38C385.15 324.78 396.17 323.14 404.28 314.87C410.31 308.77 412.99 301.56 412.5 292.76C412.17 286.72 410.75 282.56 407.46 277.87C401.21 268.96 390.47 264.56 380.66 267.02C376.6 268.08 371.56 271.13 368.22 274.59C355.51 287.96 358.91 310.94 374.85 319.38ZM372.77 293.05C373.26 286.72 376.44 282.44 382.36 280.1C385.1 278.99 389.92 279.39 392.71 280.92C405.98 288.25 401.26 309.3 386.36 309.3C378.14 309.3 372.11 302.09 372.77 293.05Z" id="d2fGjUwa7A"></path><path d="M430.98 283.28C431.3 283.28 432.89 283.28 435.75 283.28C435.75 282.42 435.75 278.12 435.75 270.38L423.69 270.38C423.69 274.46 423.69 276.72 423.69 277.18C423.69 281.71 424.11 283.86 424.96 283.63C425.61 283.45 428.3 283.28 430.98 283.28Z" id="aGBvhdunm"></path><path d="M416.27 340.84C416.56 341.11 418 342.45 420.58 344.87L424.94 348.91L426.84 347.18C428.01 346.11 428.66 345.52 428.79 345.4C428.66 347.57 428.58 348.78 428.57 349.02C428.45 351.01 428.51 354.58 428.68 356.94C428.7 357.23 428.82 358.68 429.02 361.29C429.82 361.29 433.87 361.29 441.14 361.29C441.14 352.04 441.14 346.9 441.14 345.87C442.08 346.72 442.6 347.19 442.7 347.29C443.54 348.07 444.49 348.7 444.82 348.7C445.66 348.7 453.04 341.52 452.81 340.94C452.48 340.1 439.46 327.57 437.84 326.57C436.28 325.57 434.27 325.42 432.48 326.15C431.86 326.36 427.95 329.77 423.82 333.7C423.32 334.18 420.8 336.56 416.27 340.84Z" id="a2DBpXntg2"></path><path d="M359.6 356.9L349.43 355.91L341.11 354.42L346.2 347.5L349.43 355.91L346.66 364.31L338.8 361.35L333.25 354.42" id="d2DAs29J3F"></path></defs><g><g><g><use xlink:href="#g45mtS9p6" opacity="1" fill-opacity="0" stroke="#c2c2c2" stroke-width="4" stroke-opacity="1"></use></g></g><g><use xlink:href="#d2IIEHU4OP" opacity="1" fill="#ffffff" fill-opacity="1"></use><g><use xlink:href="#d2IIEHU4OP" opacity="1" fill-opacity="0" stroke="#c2c2c2" stroke-width="3" stroke-opacity="1"></use></g></g><g><use xlink:href="#ausENnUGT" opacity="1" fill="#000000" fill-opacity="0"></use><g><use xlink:href="#ausENnUGT" opacity="1" fill-opacity="0" stroke="#c2c2c2" stroke-width="3" stroke-opacity="1"></use></g></g><g><use xlink:href="#aEubZzSnz" opacity="1" fill="#000000" fill-opacity="0"></use><g><use xlink:href="#aEubZzSnz" opacity="1" fill-opacity="0" stroke="#c2c2c2" stroke-width="3" stroke-opacity="1"></use></g></g><g><g><use xlink:href="#a1llHFI865" opacity="1" fill-opacity="0" stroke="#c2c2c2" stroke-width="1" stroke-opacity="1"></use></g></g><g><use xlink:href="#b2UJNc7oOF" opacity="1" fill="#000000" fill-opacity="0"></use><g><use xlink:href="#b2UJNc7oOF" opacity="1" fill-opacity="0" stroke="#000000" stroke-width="4" stroke-opacity="1"></use></g></g><g><g><use xlink:href="#cIrFvigOz" opacity="1" fill-opacity="0" stroke="#c2c2c2" stroke-width="4" stroke-opacity="1"></use></g></g><g><use xlink:href="#g2zeFh8lE" opacity="1" fill="#c2c2c2" fill-opacity="1"></use><g><use xlink:href="#g2zeFh8lE" opacity="1" fill-opacity="0" stroke="#000000" stroke-width="1" stroke-opacity="0"></use></g></g><g><use xlink:href="#d2fGjUwa7A" opacity="1" fill="#c2c2c2" fill-opacity="1"></use><g><use xlink:href="#d2fGjUwa7A" opacity="1" fill-opacity="0" stroke="#000000" stroke-width="1" stroke-opacity="0"></use></g></g><g><use xlink:href="#aGBvhdunm" opacity="1" fill="#c2c2c2" fill-opacity="1"></use><g><use xlink:href="#aGBvhdunm" opacity="1" fill-opacity="0" stroke="#000000" stroke-width="1" stroke-opacity="0"></use></g></g><g><use xlink:href="#a2DBpXntg2" opacity="1" fill="#ff0066" fill-opacity="1"></use><g><use xlink:href="#a2DBpXntg2" opacity="1" fill-opacity="0" stroke="#000000" stroke-width="1" stroke-opacity="0"></use></g></g><g><use xlink:href="#d2DAs29J3F" opacity="1" fill="#ffffff" fill-opacity="1"></use><g><use xlink:href="#d2DAs29J3F" opacity="1" fill-opacity="0" stroke="#c2c2c2" stroke-width="3" stroke-opacity="1"></use></g></g></g></svg>